<svg xmlns="http://www.w3.org/2000/svg" enable-background="new 0 0 64 64" viewBox="0 0 64 64"><path fill="#2D2F64" d="M52.698,38.15c-2.338-1.484-5.364-2.299-9.807-3.201c-0.369-0.068-0.737,0.068-0.96,0.359l-9.933,12.804
		l-9.923-12.804c-0.233-0.291-0.602-0.427-0.96-0.359c-1.368,0.281-2.59,0.543-3.715,0.834c-0.01,0-0.029,0-0.049,0.009
		c-2.493,0.631-4.442,1.339-6.043,2.357C4.16,42.699,4.984,52.234,6.934,59.432c0.087,0.32,0.32,0.572,0.64,0.679
		C15.703,62.7,23.88,64,32.047,64c8.157,0,16.305-1.29,24.385-3.89c0.311-0.097,0.553-0.349,0.64-0.669
		C59.013,52.244,59.837,42.699,52.698,38.15z M55.327,58.422c-15.433,4.85-31.127,4.85-46.656,0
		c-1.678-6.508-2.318-14.821,3.676-18.633c1.096-0.708,2.425-1.242,4.045-1.727c-0.136,1.019-0.213,2.027-0.213,3.017
		c0,0.893,0.078,1.872,0.184,2.871c-1.086,0.359-2.027,1.028-2.716,1.959c-0.873,1.193-1.222,2.638-0.999,4.093l0.533,3.473
		c0.078,0.485,0.485,0.825,0.96,0.825c0.048,0,0.097,0,0.146-0.01l1.678-0.262c0.524-0.078,0.893-0.572,0.806-1.105
		c-0.078-0.524-0.583-0.883-1.106-0.805l-0.708,0.106l-0.397-2.512c-0.291-1.94,1.028-3.764,2.968-4.064c0,0,0.01,0,0.02,0
		c0.184-0.029,0.368-0.039,0.553-0.039c0.747,0,1.465,0.233,2.085,0.679c0.766,0.563,1.271,1.396,1.416,2.328l0.388,2.521
		l-0.718,0.107c-0.524,0.087-0.893,0.582-0.805,1.106c0.078,0.533,0.582,0.892,1.106,0.814l1.668-0.262
		c0.252-0.039,0.485-0.175,0.64-0.388c0.146-0.204,0.213-0.465,0.174-0.718l-0.543-3.472c-0.223-1.455-0.999-2.726-2.183-3.599
		c-0.902-0.659-1.959-1.018-3.046-1.057c-0.097-0.912-0.165-1.785-0.165-2.59c0-1.154,0.126-2.357,0.33-3.56
		c0.766-0.184,1.581-0.368,2.464-0.553l10.321,13.328c0.369,0.476,1.164,0.476,1.532,0l10.331-13.328
		c1.184,0.252,2.241,0.495,3.221,0.737c0.184,1.125,0.291,2.25,0.291,3.375c0,0.873-0.058,1.785-0.165,2.716
		c-1.901,0.388-3.337,2.066-3.337,4.074c0,2.289,1.872,4.161,4.161,4.161s4.152-1.872,4.152-4.161c0-1.901-1.29-3.492-3.036-3.987
		c0.097-0.951,0.165-1.901,0.165-2.803c0-0.921-0.078-1.853-0.194-2.784c1.29,0.427,2.376,0.902,3.298,1.484
		C57.645,43.601,57.015,51.924,55.327,58.422z M47.266,45.658c1.222,0,2.212,0.989,2.212,2.211s-0.99,2.221-2.212,2.221
		s-2.221-0.999-2.221-2.221S46.044,45.658,47.266,45.658z"/><path fill="#FEDC7C" d="M49.478,47.869c0,1.222-0.99,2.221-2.212,2.221s-2.221-0.999-2.221-2.221s0.999-2.211,2.221-2.211
		S49.478,46.647,49.478,47.869z"/><path fill="#BAD5EA" d="M55.327,58.422c-15.433,4.85-31.127,4.85-46.656,0c-1.678-6.508-2.318-14.821,3.676-18.633
		c1.096-0.708,2.425-1.242,4.045-1.727c-0.136,1.019-0.213,2.027-0.213,3.017c0,0.893,0.078,1.872,0.184,2.871
		c-1.086,0.359-2.027,1.028-2.716,1.959c-0.873,1.193-1.222,2.638-0.999,4.093l0.533,3.473c0.078,0.485,0.485,0.825,0.96,0.825
		c0.048,0,0.097,0,0.146-0.01l1.678-0.262c0.524-0.078,0.893-0.572,0.806-1.105c-0.078-0.524-0.583-0.883-1.106-0.805l-0.708,0.106
		l-0.397-2.512c-0.291-1.94,1.028-3.764,2.968-4.064c0,0,0.01,0,0.02,0c0.184-0.029,0.368-0.039,0.553-0.039
		c0.747,0,1.465,0.233,2.085,0.679c0.766,0.563,1.271,1.396,1.416,2.328l0.388,2.521l-0.718,0.107
		c-0.524,0.087-0.893,0.582-0.805,1.106c0.078,0.533,0.582,0.892,1.106,0.814l1.668-0.262c0.252-0.039,0.485-0.175,0.64-0.388
		c0.146-0.204,0.213-0.465,0.174-0.718l-0.543-3.472c-0.223-1.455-0.999-2.726-2.183-3.599c-0.902-0.659-1.959-1.018-3.046-1.057
		c-0.097-0.912-0.165-1.785-0.165-2.59c0-1.154,0.126-2.357,0.33-3.56c0.766-0.184,1.581-0.368,2.464-0.553l10.321,13.328
		c0.369,0.476,1.164,0.476,1.532,0l10.331-13.328c1.184,0.252,2.241,0.495,3.221,0.737c0.184,1.125,0.291,2.25,0.291,3.375
		c0,0.873-0.058,1.785-0.165,2.716c-1.901,0.388-3.337,2.066-3.337,4.074c0,2.289,1.872,4.161,4.161,4.161s4.152-1.872,4.152-4.161
		c0-1.901-1.29-3.492-3.036-3.987c0.097-0.951,0.165-1.901,0.165-2.803c0-0.921-0.078-1.853-0.194-2.784
		c1.29,0.427,2.376,0.902,3.298,1.484C57.645,43.601,57.015,51.924,55.327,58.422z"/><path fill="#9CB7CC" d="M46.606,41.079v0.039c-0.465-0.214-0.97-0.398-1.513-0.582c-0.727-0.185-2.91-0.767-3.977-1.009
		l1.979-2.561c1.184,0.252,2.241,0.495,3.221,0.737C46.5,38.829,46.606,39.954,46.606,41.079z"/><path fill="#9CB7CC" d="M55.327,58.422c-15.433,4.85-31.127,4.85-46.656,0c-1.678-6.508-2.318-14.821,3.676-18.633
		c1.096-0.708,2.425-1.242,4.045-1.727c-0.136,1.019-0.213,2.027-0.213,3.017c0,0.223,0.009,0.456,0.009,0.698
		c-4.704,3.085-4.19,9.69-2.861,14.87c12.426,3.88,24.997,3.88,37.345,0c0.737-2.833,1.222-6.101,0.737-8.982c0,0,0,0,0-0.01
		c-0.02-0.543-0.155-1.048-0.369-1.513c-0.476-1.494-1.28-2.823-2.532-3.851c0.029-0.417,0.039-0.814,0.039-1.212
		c0-0.921-0.078-1.853-0.194-2.784c1.29,0.427,2.376,0.902,3.298,1.484C57.645,43.601,57.015,51.924,55.327,58.422z"/><path fill="#BAD5EA" d="M48.382,43.882c0.058-0.534,0.097-1.067,0.126-1.591c1.251,1.028,2.056,2.357,2.532,3.851
		C50.535,45.046,49.565,44.212,48.382,43.882z"/><path fill="#9CB7CC" d="M22.891,39.518c-0.621,0.136-1.193,0.271-1.736,0.397c-0.747,0.223-1.969,0.611-3.036,0.999
		c0.01-1.105,0.136-2.25,0.33-3.395c0.766-0.184,1.581-0.368,2.464-0.553L22.891,39.518z"/><path fill="#2D2F64" d="M47.15,7.828c-1.368-3.909-4.22-6.451-8.245-7.353c-0.029-0.009-0.058-0.009-0.087-0.019
		c-4.521-0.611-9.108-0.611-13.716,0.019c-4.035,0.902-6.887,3.444-8.255,7.353c-0.814,2.328-0.97,4.947-0.456,7.565l1.29,6.596
		c0.087,0.456,0.485,0.786,0.95,0.786h0.292c1.29,8.536,7.013,15.345,13.085,15.345c4.733,0,9.496-4.219,11.844-10.495
		c0.582-1.542,0.989-3.172,1.232-4.85h0.291c0.456,0,0.863-0.33,0.95-0.786l1.29-6.596C48.129,12.775,47.964,10.156,47.15,7.828z
		 M42.038,26.946c-2.066,5.52-6.101,9.234-10.03,9.234c-5.073,0-9.903-5.927-11.125-13.405h22.242
		C42.892,24.211,42.533,25.617,42.038,26.946z M45.705,15.025l-1.135,5.81H19.428l-1.135-5.81c-0.446-2.29-0.31-4.549,0.388-6.557
		c1.154-3.289,3.453-5.335,6.761-6.082c4.336-0.592,8.74-0.592,13.076-0.01c3.366,0.766,5.655,2.823,6.799,6.092
		C46.024,10.476,46.151,12.736,45.705,15.025z"/><path fill="#BAD5EA" d="M45.316,8.468c-1.145-3.269-3.434-5.326-6.799-6.092c-4.336-0.582-8.74-0.582-13.076,0.01
		c-3.308,0.747-5.606,2.793-6.761,6.082c-0.698,2.008-0.834,4.268-0.388,6.557l1.135,5.81h25.142l1.135-5.81
		C46.151,12.736,46.024,10.476,45.316,8.468z M36.276,12.358h-3.308v3.307c0,0.543-0.437,0.97-0.97,0.97s-0.97-0.427-0.97-0.97
		v-3.307h-3.308c-0.533,0-0.97-0.437-0.97-0.97s0.437-0.97,0.97-0.97h3.308V7.11c0-0.533,0.436-0.97,0.97-0.97s0.97,0.437,0.97,0.97
		v3.308h3.308c0.543,0,0.97,0.437,0.97,0.97S36.819,12.358,36.276,12.358z"/><path fill="#FFE5AB" d="M43.125,22.775c-0.233,1.436-0.592,2.842-1.086,4.171c-2.066,5.52-6.101,9.234-10.03,9.234
		c-5.073,0-9.903-5.927-11.125-13.405H43.125z"/><path fill="#9CB7CC" d="M45.705,15.025l-1.135,5.81h-2.561l0.912-4.918c0.349-1.94,0.252-3.851-0.311-5.548
		c-0.912-2.774-2.735-4.51-5.422-5.16c-3.453-0.495-6.955-0.495-10.408,0.01c-2.639,0.63-4.472,2.367-5.393,5.15
		c-0.553,1.698-0.66,3.608-0.311,5.548l0.912,4.918h-2.561l-1.135-5.81c-0.446-2.29-0.31-4.549,0.388-6.557
		c1.154-3.289,3.453-5.335,6.761-6.082c4.336-0.592,8.74-0.592,13.076-0.01c3.366,0.766,5.655,2.823,6.799,6.092
		C46.024,10.476,46.151,12.736,45.705,15.025z"/><path fill="#F3C88C" d="M43.125,22.775c-0.233,1.436-0.592,2.842-1.086,4.171c-2.066,5.52-6.101,9.234-10.03,9.234
		c-5.073,0-9.903-5.927-11.125-13.405h2.182c1.184,6.033,4.966,10.689,8.943,10.689c3.21,0,6.509-3.191,8.206-7.925
		c0.311-0.883,0.563-1.814,0.747-2.765H43.125z"/><path fill="#2D2F64" d="M37.246,11.388c0,0.534-0.427,0.97-0.97,0.97h-3.308v3.307c0,0.543-0.437,0.97-0.97,0.97
		s-0.97-0.427-0.97-0.97v-3.307h-3.308c-0.533,0-0.97-0.437-0.97-0.97s0.437-0.97,0.97-0.97h3.308V7.11
		c0-0.533,0.436-0.97,0.97-0.97s0.97,0.437,0.97,0.97v3.308h3.308C36.819,10.417,37.246,10.854,37.246,11.388z"/></svg>